<?xml version="1.0" encoding="UTF-8" standalone="no"?>
<svg
   xmlns:dc="http://purl.org/dc/elements/1.1/"
   xmlns:cc="http://creativecommons.org/ns#"
   xmlns:rdf="http://www.w3.org/1999/02/22-rdf-syntax-ns#"
   xmlns:svg="http://www.w3.org/2000/svg"
   xmlns="http://www.w3.org/2000/svg"
   xmlns:sodipodi="http://sodipodi.sourceforge.net/DTD/sodipodi-0.dtd"
   xmlns:inkscape="http://www.inkscape.org/namespaces/inkscape"
   enable-background="new 0 0 595.275 311.111"
   xml:space="preserve"
   height="185"
   width="250"
   version="1.1"
   y="0px"
   x="0px"
   viewBox="0 0 250.00001 184.99694"
   id="svg3007"
   inkscape:version="0.48.2 r9819"
   sodipodi:docname="logo.svg"
   inkscape:export-filename="/Users/roland/dev/Gnuside/owncloud-core/core/img/logo.png"
   inkscape:export-xdpi="89.807915"
   inkscape:export-ydpi="89.807915"><metadata
   id="metadata3015"><rdf:RDF><cc:Work
       rdf:about=""><dc:format>image/svg+xml</dc:format><dc:type
         rdf:resource="http://purl.org/dc/dcmitype/StillImage" /><dc:title></dc:title></cc:Work></rdf:RDF></metadata><defs
   id="defs3013"><inkscape:perspective
   sodipodi:type="inkscape:persp3d"
   inkscape:vp_x="0 : 167.3445 : 1"
   inkscape:vp_y="0 : 1000 : 0"
   inkscape:vp_z="784.71503 : 167.3445 : 1"
   inkscape:persp3d-origin="392.35751 : 111.563 : 1"
   id="perspective3379" />

	
	
	
	

	
	
	
	
<inkscape:perspective
   id="perspective3379-9"
   inkscape:persp3d-origin="392.35751 : 111.563 : 1"
   inkscape:vp_z="784.71503 : 167.3445 : 1"
   inkscape:vp_y="0 : 1000 : 0"
   inkscape:vp_x="0 : 167.3445 : 1"
   sodipodi:type="inkscape:persp3d" /></defs><sodipodi:namedview
   pagecolor="#000000"
   bordercolor="#666666"
   borderopacity="1"
   objecttolerance="10"
   gridtolerance="10"
   guidetolerance="10"
   inkscape:pageopacity="0"
   inkscape:pageshadow="2"
   inkscape:window-width="1268"
   inkscape:window-height="794"
   id="namedview3011"
   showgrid="false"
   inkscape:zoom="1.408"
   inkscape:cx="35.866477"
   inkscape:cy="59.115002"
   inkscape:window-x="0"
   inkscape:window-y="0"
   inkscape:window-maximized="0"
   inkscape:current-layer="svg3007" />
<path
   style="text-indent:0;text-transform:none;block-progression:tb;color:#000000;fill:#ffffff;enable-background:accumulate"
   d="m 150.66,1.57268 c -11.241,0 -20.322,9.0815 -20.322,20.322 0,4.6335 1.5429,8.898 4.1442,12.313 5.6431,-6.5315 13.972,-10.679 23.271,-10.679 4.5496,0 8.8639,1.0131 12.751,2.7893 0.31474,-1.4234 0.47817,-2.9037 0.47817,-4.4231 0.01,-11.24 -9.08,-20.322 -20.32,-20.322 z m -26.539,9.404 c -5.8539,0 -10.56,4.7456 -10.56,10.599 0,1.8953 0.48899,3.6862 1.3548,5.22 3.5325,-1.9927 7.6164,-3.148 11.954,-3.148 0.41864,0 0.82186,0.017 1.2353,0.0399 -0.0468,-0.59343 -0.0797,-1.1878 -0.0797,-1.7931 0,-3.2605 0.70816,-6.3627 1.9525,-9.165 -1.6754,-1.1235 -3.6828,-1.7533 -5.8576,-1.7533 z m 50.128,7.2921 c -0.43247,0 -0.84934,0.05309 -1.2751,0.0797 0.18418,1.1613 0.31878,2.3339 0.31878,3.5464 0,1.8871 -0.24,3.708 -0.67741,5.4591 5.1284,2.8381 9.3873,7.0847 12.193,12.233 2.9105,-1.5152 6.1573,-2.4787 9.6033,-2.7096 -0.8881,-10.415 -9.5166,-18.609 -20.163,-18.609 z m -16.497,7.5711 c -15.729,0 -28.451,12.721 -28.451,28.451 0,15.729001 12.721,28.451002 28.451,28.451002 15.73,0 28.451,-12.723001 28.451,-28.451002 0,-15.73 -12.722,-28.451 -28.451,-28.451 z m -30.882,0.11954 c -12.203,0 -22.076,9.8727 -22.076,22.076 0,7.1836 3.4227,13.543 8.7266,17.573001 2.236,-4.312701 6.727,-7.252301 11.914,-7.252301 0.62695,0 1.2287,0.076 1.833,0.15939 -0.18969,-1.3801 -0.27893,-2.792 -0.27893,-4.2239 0,-6.846 2.2284,-13.177 6.017,-18.29 -2.2678,-2.8377 -3.8907,-6.2474 -4.5825,-9.9619 -0.51269,-0.0355 -1.0323,-0.0797 -1.5541,-0.0797 z m 69.18,13.149 c -3.7054,0 -7.1763,0.94599 -10.241,2.5503 1.7401,3.8545 2.7096,8.1312 2.7096,12.632 0,8.426801 -3.3881,16.079001 -8.886,21.637001 4.039,4.4841 9.8991,7.292101 16.417,7.292101 12.203,0 22.076,-9.872701 22.076,-22.076002 0,-12.2033 -9.8727,-22.036 -22.076,-22.036 z m -93.403,2.9089 c -11.241,0 -20.362,9.0413 -20.362,20.282001 0,11.2407 9.121,20.362001 20.362,20.362001 4.2785,0 8.2419,-1.333001 11.516,-3.586301 -1.3529,-2.1023 -2.1518,-4.6156 -2.1518,-7.2921 0,-1.3892 0.20497,-2.7238 0.59771,-3.9848 -6.1294,-4.4296 -10.121,-11.638001 -10.121,-19.764001 0,-2.0648 0.27209,-4.0613 0.75711,-5.9772 -0.20132,-0.006 -0.39495,-0.0399 -0.59772,-0.0399 z m 119.5,17.453 c -0.59968,0 -1.1799,0.0683 -1.7533,0.15939 0.0316,0.50688 0.0398,0.99939 0.0398,1.5142 0,6.481601 -2.5574,12.364001 -6.6944,16.736001 2.0353,2.3668 5.0248,3.8652 8.4079,3.8652 6.1623,0 11.157,-4.9552 11.157,-11.117 0,-6.1623 -4.9951,-11.157001 -11.157,-11.157001 z m -96.71,1.1954 c -6.162,0 -11.118,4.955501 -11.118,11.117001 0,6.162 4.9555,11.157001 11.118,11.157001 4.7232,0 8.7323,-2.947201 10.36,-7.092901 -3.9726,-4.046 -6.8276,-9.2077 -8.0891,-14.943001 -0.73821,-0.15266 -1.4875,-0.23909 -2.2713,-0.23909 z m 122.21,9.364201 V 92.06592 h -11.675 c -7.6322,0 -13.827,6.2347 -13.827,13.867 0,7.6311 6.195,13.827 13.827,13.827 h 4.5426 c 2.239,0 4.4748,-1.0874 6.2561,-2.7495 1.7813,-1.6621 3.1409,-3.9644 3.1878,-6.535 0.0801,-4.4122 0,-17.254 0,-17.254 V 70.030421 h -2.3112 z m -106.75,9.9619 v 30.482999 c 0,5.1232 4.2011,9.2845 9.3244,9.2845 v -2.3112 c -3.8766,0 -7.0132,-3.0967 -7.0132,-6.9733 V 81.425821 c -0.80461,-0.4325 -1.5514,-0.93449 -2.3112,-1.4345 z m -23.112,2.829201 c -4.0935,3.905898 -6.6546,9.405298 -6.6546,15.500998 0,11.827 9.6118,21.438 21.438,21.438 v -2.3112 c -10.579,0 -19.127,-8.5469 -19.127,-19.127 0,-5.6905 2.4839,-10.805 6.4155,-14.304998 -0.73485,-0.33851 -1.4155,-0.73502 -2.0721,-1.1954 z M 90.569,91.98602 c -7.6322,0 -13.827,6.1949 -13.827,13.827 v 12.791 h 2.3112 v -12.791 c 0,-6.3852 5.1309,-11.556 11.516,-11.556 6.3864,0 11.556,5.1706 11.556,11.556 v 12.791 h 2.3112 v -12.791 c 0,-7.6322 -6.2338,-13.827 -13.867,-13.827 z m 77.583,0.0797 c -7.6326,0 -13.827,6.2344 -13.827,13.867 0,7.6326 6.1945,13.867 13.827,13.867 7.6326,0 13.867,-6.2344 13.867,-13.867 0,-7.6326 -6.2344,-13.867 -13.867,-13.867 z m -154.29,0.0398 c -7.632,0 -13.867,6.1952 -13.867,13.827 0,7.632 6.235,13.827 13.867,13.827 7.632,0 13.827,-6.1952 13.827,-13.827 0,-7.632 -6.1952,-13.827 -13.827,-13.827 z m 20.761,1.036 v 17.334 c 0,5.1234 4.1622,9.2845 9.2845,9.2845 3.4912,0 6.5716,-1.9303 8.1688,-4.7817 1.5857,2.8514 4.6384,4.7817 8.1289,4.7817 5.1233,0 9.3243,-4.1611 9.3243,-9.2845 v -17.334 h -2.3112 v 17.334 c 0,3.8764 -3.1366,6.9733 -7.0132,6.9733 -3.8766,0 -6.9733,-3.0969 -6.9733,-6.9733 v -17.334 h -2.3112 v 17.334 c 0,3.8766 -3.1352,6.9733 -7.0132,6.9733 -3.8753,0 -6.9733,-3.0969 -6.9733,-6.9733 v -17.334 h -2.3112 z m 153.45,0 v 12.791 c 0,7.6311 6.195,13.827 13.827,13.827 7.6322,0 13.867,-6.1959 13.867,-13.827 v -12.791 h -2.3112 v 12.791 c 0,6.3837 -5.1707,11.516 -11.556,11.516 -6.3851,0 -11.516,-5.1322 -11.516,-11.516 v -12.791 h -2.3112 z m -19.924,1.2353 c 6.3856,0 11.556,5.1702 11.556,11.556 0,6.3856 -5.1702,11.556 -11.556,11.556 -6.3856,0 -11.516,-5.1702 -11.516,-11.556 0,-6.3856 5.1304,-11.556 11.516,-11.556 z m 67.821,0 h 11.675 c 0.009,1.5271 0.0728,12.046 0,16.059 -0.0326,1.7858 -1.0121,3.5776 -2.4307,4.9013 -1.4186,1.3236 -3.2544,2.1119 -4.702,2.1119 h -4.5426 c -6.3851,0 -11.516,-5.1322 -11.516,-11.516 0,-6.3852 5.1309,-11.556 11.516,-11.556 z m -222.11,0.0399 c 6.385,0 11.516,5.131 11.516,11.516 0,6.385 -5.131,11.516 -11.516,11.516 -6.385,0 -11.556,-5.131 -11.556,-11.516 0,-6.385 5.1708,-11.516 11.556,-11.516 z"
   id="path3009"
   inkscape:connector-curvature="0" />
<text
   xml:space="preserve"
   style="font-size:17.99998093px;font-style:normal;font-variant:normal;font-weight:300;font-stretch:normal;text-align:start;line-height:125%;letter-spacing:0px;word-spacing:0px;writing-mode:lr-tb;text-anchor:start;fill:#ffffff;fill-opacity:1;stroke:none;font-family:Lato;-inkscape-font-specification:Lato Light"
   x="42.062698"
   y="163.2403"
   id="text3597"
   sodipodi:linespacing="125%"><tspan
     sodipodi:role="line"
     id="tspan3599"
     x="42.062698"
     y="163.2403">hosted by</tspan></text>
<path
   style="fill:#be0926;display:none"
   inkscape:connector-curvature="0"
   display="none"
   d="m -5.18083,436.3762 c 0.398,-0.977 -0.093,-1.907 -1.58,-2.764 -0.221,-0.126 -0.958,-0.506 -2.066,-0.698 -1.422,-0.245 -2.291,0.185 -2.283,0.177 -0.978,0.348 -1.835,1.328 -1.724,2.545 0.086,0.936 0.834,1.623 1.68,1.823 0.764,0.18 1.597,-0.294 3.182,-0.368 0.774,-0.036 0.982,0.015 1.58,-0.001 0.345,-0.011 0.591,-0.074 0.763,-0.18 0.198,-0.121 0.363,-0.325 0.448,-0.534 z"
   id="path3113" /><g
   id="g4223"
   transform="translate(-579.04783,111.61288)"
   inkscape:export-filename="/home/warbrain/mnt/Gnuside.Documents/Communication/Logo/2011-01-31 - Logo - CarteVisite - Final/Logo Only/Gnuside Beta/g4229.64.png"
   inkscape:export-xdpi="128.60686"
   inkscape:export-ydpi="128.60686"><path
     transform="translate(2.8346457,0)"
     style="fill:#ffffff;fill-opacity:1"
     d="m 725.40625,40.75 c -4.354,-0.069 -5.875,3.27375 -5.875,5.34375 0,2.611 1.94525,4.81525 5.15625,5.15625 0.067,0.004 0.182,0.0063 0.25,0.03125 0.071,0.028 0.1155,0.067 0.1875,0.125 0.739,0.583 1.703,2.08525 4,3.90625 1.357,1.075 2.37875,1.65575 3.96875,2.21875 2.666,0.941 4.904,0.56375 5.5,0.46875 4.721,-0.743 8.09325,-4.4925 8.28125,-8.5625 0.224,-4.871 -3.67925,-7.5125 -6.53125,-6.4375 -1.344,0.493 -1.96875,1.75 -1.96875,1.75 0,0 0.842,-0.82975 2.375,-0.96875 2.408,0 3.78125,2.02525 3.78125,3.78125 0,2.643 -2.38525,5.58625 -5.90625,5.28125 -2.846,-0.245 -5.068,-2.3825 -6.25,-5.1875 -0.926,-2.199 -2.49175,-6.48525 -6.96875,-6.90625 z"
     id="path3415"
     inkscape:original="M 725.40625 40.75 C 721.05225 40.681 719.53125 44.02375 719.53125 46.09375 C 719.53125 48.70475 721.4765 50.909 724.6875 51.25 C 724.7545 51.254 724.8695 51.25625 724.9375 51.28125 C 725.0085 51.30925 725.053 51.34825 725.125 51.40625 C 725.864 51.98925 726.828 53.4915 729.125 55.3125 C 730.482 56.3875 731.50375 56.96825 733.09375 57.53125 C 735.75975 58.47225 737.99775 58.095 738.59375 58 C 743.31475 57.257 746.687 53.5075 746.875 49.4375 C 747.099 44.5665 743.19575 41.925 740.34375 43 C 738.99975 43.493 738.375 44.75 738.375 44.75 C 738.375 44.75 739.217 43.92025 740.75 43.78125 C 743.158 43.78125 744.53125 45.8065 744.53125 47.5625 C 744.53125 50.2055 742.146 53.14875 738.625 52.84375 C 735.779 52.59875 733.557 50.46125 732.375 47.65625 C 731.449 45.45725 729.88325 41.171 725.40625 40.75 z "
     inkscape:radius="0"
     sodipodi:type="inkscape:offset" /><path
     inkscape:connector-curvature="0"
     d="m 735.80065,40.134 c 1.338,-1.172 1.297,-2.944 -0.295,-5.355 -0.236,-0.357 -1.063,-1.484 -2.59,-2.61 -1.957,-1.439 -3.586,-1.445 -3.568,-1.453 -1.736,-0.212 -3.768,0.619 -4.516,2.536 -0.576,1.473 -0.029,3.151 1.158,4.011 1.033,0.75 3.078,0.457 4.996,1.454 1.543,0.804 1.967,1.354 2.475,1.625 0.436,0.231 0.816,0.318 1.262,0.257 0.393,-0.051 0.797,-0.215 1.078,-0.465 z"
     id="path3325"
     style="fill:#ffffff;fill-opacity:1" /><path
     inkscape:connector-curvature="0"
     d="m 739.53565,35.057 c 1.5,-0.288 2.244,-1.625 2.107,-4.108 -0.023,-0.368 -0.146,-1.565 -0.791,-3.063 -0.828,-1.922 -2.039,-2.635 -2.023,-2.632 -1.199,-0.912 -3.066,-1.177 -4.457,-0.077 -1.068,0.845 -1.311,2.297 -0.881,3.485 0.383,1.07 1.617,1.704 2.965,3.572 0.66,0.912 0.762,1.205 1.254,1.916 0.287,0.413 0.559,0.66 0.822,0.787 0.308,0.144 0.683,0.183 1.004,0.12 z"
     id="path3327"
     style="fill:#ffffff;fill-opacity:1" /><path
     inkscape:connector-curvature="0"
     d="m 744.52365,33.124 c 1.201,0.491 2.346,-0.115 3.4,-1.943 0.154,-0.271 0.621,-1.178 0.859,-2.542 0.301,-1.75 -0.23,-2.816 -0.219,-2.806 -0.428,-1.204 -1.635,-2.258 -3.129,-2.122 -1.152,0.105 -1.998,1.025 -2.244,2.067 -0.219,0.94 0.363,1.962 0.453,3.912 0.045,0.954 -0.018,1.208 0.004,1.944 0.01,0.424 0.09,0.726 0.219,0.938 0.149,0.245 0.403,0.449 0.657,0.552 z"
     id="path3329"
     style="fill:#ffffff;fill-opacity:1" /></g><g
   id="g4229"
   inkscape:export-xdpi="128.60686"
   inkscape:export-ydpi="128.60686"
   transform="translate(-577.39751,111.61288)"><path
     inkscape:connector-curvature="0"
     d="m 717.46243,72.204757 0,-1.956422 -1.61003,0 0,-0.80989 2.5858,0 0,3.127348 c -0.38056,0.269964 -0.80014,0.474875 -1.25875,0.614736 -0.45861,0.136608 -0.94813,0.204912 -1.46853,0.204912 -1.13841,0 -2.02961,-0.331762 -2.67362,-0.995287 -0.64075,-0.666776 -0.96113,-1.593758 -0.96113,-2.780949 0,-1.190436 0.32038,-2.117418 0.96113,-2.780949 0.64401,-0.66677 1.53521,-1.000158 2.67362,-1.000166 0.47487,8e-6 0.92535,0.05855 1.35144,0.175639 0.42933,0.1171 0.82452,0.289486 1.18556,0.517159 l 0,1.048955 c -0.36429,-0.308989 -0.75135,-0.541547 -1.16116,-0.697677 -0.40983,-0.156117 -0.8408,-0.234179 -1.2929,-0.234185 -0.89121,6e-6 -1.56124,0.248828 -2.01009,0.746465 -0.44561,0.497649 -0.66841,1.239234 -0.6684,2.224759 -10e-6,0.982279 0.22279,1.722239 0.6684,2.21988 0.44885,0.497645 1.11888,0.746466 2.01009,0.746465 0.34802,10e-7 0.65864,-0.02927 0.93186,-0.08782 0.27321,-0.0618 0.51878,-0.156122 0.73671,-0.282974"
     style="font-size:9.99190044px;fill:#ffffff;fill-opacity:1;font-family:MyriadPro-Bold"
     id="path3382" /><path
     inkscape:connector-curvature="0"
     d="m 720.24338,65.959819 1.32704,0 3.22981,6.093694 0,-6.093694 0.95625,0 0,7.284135 -1.32704,0 -3.22981,-6.093693 0,6.093693 -0.95625,0 0,-7.284135"
     style="font-size:9.99190044px;fill:#ffffff;fill-opacity:1;font-family:MyriadPro-Bold"
     id="path3384" /><path
     inkscape:connector-curvature="0"
     d="m 727.60557,65.959819 0.99041,0 0,4.425124 c 0,0.78062 0.14149,1.343314 0.42446,1.688085 0.28297,0.341521 0.74158,0.512281 1.37584,0.51228 0.63099,10e-7 1.08798,-0.170759 1.37096,-0.51228 0.28297,-0.344771 0.42445,-0.907465 0.42446,-1.688085 l 0,-4.425124 0.99041,0 0,4.547096 c -10e-6,0.949753 -0.23582,1.666944 -0.70744,2.151576 -0.46837,0.484633 -1.16117,0.72695 -2.07839,0.72695 -0.92048,0 -1.61653,-0.242317 -2.08815,-0.72695 -0.46837,-0.484632 -0.70256,-1.201823 -0.70256,-2.151576 l 0,-4.547096"
     style="font-size:9.99190044px;fill:#ffffff;fill-opacity:1;font-family:MyriadPro-Bold"
     id="path3386" /><path
     inkscape:connector-curvature="0"
     d="m 739.40265,66.198884 0,0.961134 c -0.37405,-0.178885 -0.72696,-0.31224 -1.05871,-0.400066 -0.33177,-0.08781 -0.65215,-0.131722 -0.96114,-0.131729 -0.53668,7e-6 -0.95138,0.104089 -1.24411,0.312247 -0.28948,0.208171 -0.43422,0.504154 -0.43422,0.887952 0,0.32201 0.096,0.565952 0.28786,0.731829 0.19515,0.162633 0.56269,0.294362 1.10262,0.395187 l 0.59522,0.121972 c 0.73508,0.139864 1.27663,0.387059 1.62466,0.741586 0.35127,0.351281 0.52691,0.822903 0.52692,1.414869 -1e-5,0.705809 -0.23745,1.240857 -0.71232,1.605144 -0.47162,0.364288 -1.16442,0.546432 -2.07839,0.546432 -0.34478,0 -0.71232,-0.03903 -1.10262,-0.117093 -0.38706,-0.07806 -0.78875,-0.193528 -1.20508,-0.346399 l 0,-1.014802 c 0.40007,0.224429 0.792,0.393562 1.1758,0.507401 0.38381,0.113841 0.7611,0.170761 1.1319,0.17076 0.56269,10e-7 0.99691,-0.110586 1.30266,-0.331762 0.30573,-0.221174 0.4586,-0.536673 0.45861,-0.946499 -10e-6,-0.35778 -0.1106,-0.637501 -0.33177,-0.839163 -0.21792,-0.201657 -0.57733,-0.352901 -1.07822,-0.453734 l -0.6001,-0.117092 c -0.73509,-0.146363 -1.26688,-0.375669 -1.59539,-0.687919 -0.32851,-0.312243 -0.49276,-0.746461 -0.49276,-1.302655 0,-0.644003 0.22605,-1.151404 0.67816,-1.522204 0.45536,-0.370786 1.08148,-0.556182 1.87836,-0.55619 0.34151,8e-6 0.68954,0.03091 1.04407,0.0927 0.35453,0.06181 0.71719,0.154505 1.08799,0.278095"
     style="font-size:9.99190044px;fill:#ffffff;fill-opacity:1;font-family:MyriadPro-Bold"
     id="path3388" /><path
     inkscape:connector-curvature="0"
     d="m 741.37859,65.959819 0.98553,0 0,7.284135 -0.98553,0 0,-7.284135"
     style="font-size:9.99190044px;fill:#ffffff;fill-opacity:1;font-family:MyriadPro-Bold"
     id="path3390" /><path
     inkscape:connector-curvature="0"
     d="m 745.31095,66.76971 0,5.664354 1.19044,0 c 1.00504,0 1.74012,-0.227679 2.20524,-0.68304 0.46837,-0.455359 0.70255,-1.174176 0.70256,-2.156456 -10e-6,-0.975766 -0.23419,-1.689705 -0.70256,-2.141818 -0.46512,-0.455354 -1.2002,-0.683034 -2.20524,-0.68304 l -1.19044,0 m -0.98553,-0.809891 2.02472,0 c 1.41162,8e-6 2.44756,0.294365 3.10784,0.883074 0.66026,0.585468 0.9904,1.502693 0.9904,2.751675 0,1.255496 -0.33176,2.177599 -0.99528,2.766313 -0.66353,0.588716 -1.69785,0.883073 -3.10296,0.883073 l -2.02472,0 0,-7.284135"
     style="font-size:9.99190044px;fill:#ffffff;fill-opacity:1;font-family:MyriadPro-Bold"
     id="path3392" /><path
     inkscape:connector-curvature="0"
     d="m 752.0145,65.959819 4.60564,0 0,0.829406 -3.62012,0 0,2.156455 3.46887,0 0,0.829406 -3.46887,0 0,2.639462 3.70794,0 0,0.829406 -4.69346,0 0,-7.284135"
     style="font-size:9.99190044px;fill:#ffffff;fill-opacity:1;font-family:MyriadPro-Bold"
     id="path3394" /></g></svg>