<?xml version="1.0" encoding="UTF-8" standalone="no"?>
<svg
   xmlns:dc="http://purl.org/dc/elements/1.1/"
   xmlns:cc="http://creativecommons.org/ns#"
   xmlns:rdf="http://www.w3.org/1999/02/22-rdf-syntax-ns#"
   xmlns:svg="http://www.w3.org/2000/svg"
   xmlns="http://www.w3.org/2000/svg"
   xmlns:sodipodi="http://sodipodi.sourceforge.net/DTD/sodipodi-0.dtd"
   xmlns:inkscape="http://www.inkscape.org/namespaces/inkscape"
   enable-background="new 0 0 595.275 311.111"
   xml:space="preserve"
   height="185"
   width="250"
   version="1.1"
   y="0px"
   x="0px"
   viewBox="0 0 250.00001 184.99694"
   id="svg3007"
   inkscape:version="0.48.2 r9819"
   sodipodi:docname="logo.svg"
   inkscape:export-filename="/Users/roland/dev/Gnuside/owncloud-core/core/img/logo.png"
   inkscape:export-xdpi="89.807915"
   inkscape:export-ydpi="89.807915"><metadata
   id="metadata3015"><rdf:RDF><cc:Work
       rdf:about=""><dc:format>image/svg+xml</dc:format><dc:type
         rdf:resource="http://purl.org/dc/dcmitype/StillImage" /><dc:title></dc:title></cc:Work></rdf:RDF></metadata><defs
   id="defs3013"><inkscape:perspective
   sodipodi:type="inkscape:persp3d"
   inkscape:vp_x="0 : 167.3445 : 1"
   inkscape:vp_y="0 : 1000 : 0"
   inkscape:vp_z="784.71503 : 167.3445 : 1"
   inkscape:persp3d-origin="392.35751 : 111.563 : 1"
   id="perspective3379" />

	
	
	
	

	
	
	
	
<inkscape:perspective
   id="perspective3379-9"
   inkscape:persp3d-origin="392.35751 : 111.563 : 1"
   inkscape:vp_z="784.71503 : 167.3445 : 1"
   inkscape:vp_y="0 : 1000 : 0"
   inkscape:vp_x="0 : 167.3445 : 1"
   sodipodi:type="inkscape:persp3d" /></defs><sodipodi:namedview
   pagecolor="#000000"
   bordercolor="#666666"
   borderopacity="1"
   objecttolerance="10"
   gridtolerance="10"
   guidetolerance="10"
   inkscape:pageopacity="0"
   inkscape:pageshadow="2"
   inkscape:window-width="1268"
   inkscape:window-height="794"
   id="namedview3011"
   showgrid="false"
   inkscape:zoom="1.408"
   inkscape:cx="13.494318"
   inkscape:cy="59.115002"
   inkscape:window-x="166"
   inkscape:window-y="202"
   inkscape:window-maximized="0"
   inkscape:current-layer="svg3007" />


<path
   style="text-indent:0;text-transform:none;block-progression:tb;color:#000000;fill:#ffffff;enable-background:accumulate"
   d="m 188.25341,123.335 c -5.6205,0 -10.161,4.54075 -10.161,10.161 0,2.31675 0.77145,4.449 2.0721,6.1565 2.82155,-3.26575 6.986,-5.3395 11.6355,-5.3395 2.2748,0 4.43195,0.50655 6.3755,1.39465 0.15737,-0.7117 0.23909,-1.45185 0.23909,-2.21155 0.005,-5.62 -4.54,-10.161 -10.16,-10.161 z m -13.2695,4.702 c -2.92695,0 -5.28,2.3728 -5.28,5.2995 0,0.94765 0.2445,1.8431 0.6774,2.61 1.76625,-0.99635 3.8082,-1.574 5.977,-1.574 0.20932,0 0.41093,0.008 0.61765,0.0199 -0.0234,-0.29671 -0.0399,-0.5939 -0.0399,-0.89655 0,-1.63025 0.35408,-3.18135 0.97625,-4.5825 -0.8377,-0.56175 -1.8414,-0.87665 -2.9288,-0.87665 z m 25.064,3.64605 c -0.21623,0 -0.42467,0.0265 -0.63755,0.0399 0.0921,0.58065 0.15939,1.16695 0.15939,1.7732 0,0.94355 -0.12,1.854 -0.3387,2.72955 2.5642,1.41905 4.69365,3.54235 6.0965,6.1165 1.45525,-0.7576 3.07865,-1.23935 4.80165,-1.3548 -0.44405,-5.2075 -4.7583,-9.3045 -10.0815,-9.3045 z m -8.2485,3.78555 c -7.86449,0 -14.2255,6.3605 -14.2255,14.2255 0,7.8645 6.3605,14.2255 14.2255,14.2255 7.865,0 14.2255,-6.3615 14.2255,-14.2255 0,-7.865 -6.361,-14.2255 -14.2255,-14.2255 z m -15.441,0.0598 c -6.1015,0 -11.038,4.93635 -11.038,11.038 0,3.5918 1.71136,6.7715 4.36331,8.7865 1.11799,-2.15635 3.36349,-3.62615 5.95699,-3.62615 0.31348,0 0.61435,0.038 0.9165,0.0797 -0.0948,-0.69005 -0.13946,-1.396 -0.13946,-2.11195 0,-3.423 1.1142,-6.5885 3.0085,-9.145 -1.1339,-1.41885 -1.94535,-3.1237 -2.29125,-4.98095 -0.25635,-0.0177 -0.51615,-0.0399 -0.77705,-0.0399 z m 34.59,6.5745 c -1.8527,0 -3.58815,0.473 -5.1205,1.27515 0.87005,1.92725 1.3548,4.0656 1.3548,6.316 0,4.2134 -1.69405,8.0395 -4.44299,10.8185 2.01949,2.24205 4.94954,3.64605 8.20849,3.64605 6.10151,0 11.038,-4.93635 11.038,-11.038 0,-6.10165 -4.93635,-11.018 -11.038,-11.018 z m -46.7015,1.45445 c -5.6205,0 -10.181,4.52065 -10.181,10.141 0,5.62035 4.5605,10.181 10.181,10.181 2.13925,0 4.12095,-0.6665 5.758,-1.79315 -0.67645,-1.05115 -1.0759,-2.3078 -1.0759,-3.64605 0,-0.6946 0.10249,-1.3619 0.29886,-1.9924 -3.0647,-2.2148 -5.0605,-5.819 -5.0605,-9.882 0,-1.0324 0.13604,-2.03065 0.37856,-2.9886 -0.10066,-0.003 -0.19748,-0.0199 -0.29886,-0.0199 z m 59.75,8.7265 c -0.29984,0 -0.58995,0.0341 -0.87665,0.0797 0.0158,0.25344 0.0199,0.4997 0.0199,0.7571 0,3.2408 -1.2787,6.182 -3.3472,8.368 1.01765,1.1834 2.5124,1.9326 4.20395,1.9326 3.08115,0 5.5785,-2.4776 5.5785,-5.5585 0,-3.08115 -2.49755,-5.5785 -5.5785,-5.5785 z m -48.355,0.5977 c -3.081,0 -5.559,2.47775 -5.559,5.5585 0,3.081 2.47775,5.5785 5.559,5.5785 2.3616,0 4.36615,-1.4736 5.18,-3.54645 -1.9863,-2.023 -3.4138,-4.60385 -4.04455,-7.4715 -0.3691,-0.0763 -0.74375,-0.11954 -1.13565,-0.11954 z m 61.105,4.6821 v 11.018 h -5.8375 c -3.8161,0 -6.9135,3.11735 -6.9135,6.9335 0,3.81555 3.0975,6.9135 6.9135,6.9135 h 2.2713 c 1.1195,0 2.2374,-0.5437 3.12805,-1.37475 0.89065,-0.83105 1.57045,-1.9822 1.5939,-3.2675 0.0401,-2.2061 0,-8.627 0,-8.627 v -11.5955 h -1.1556 z m -53.375,4.98095 v 15.2415 c 0,2.5616 2.10055,4.64225 4.6622,4.64225 v -1.1556 c -1.9383,0 -3.5066,-1.54835 -3.5066,-3.48665 v -14.5245 c -0.4023,-0.21625 -0.7757,-0.46724 -1.1556,-0.71725 z m -11.556,1.4146 c -2.04675,1.95295 -3.3273,4.70265 -3.3273,7.7505 0,5.9135 4.8059,10.719 10.719,10.719 v -1.1556 c -5.2895,0 -9.5635,-4.27345 -9.5635,-9.5635 0,-2.84525 1.24195,-5.4025 3.20775,-7.1525 -0.36742,-0.16925 -0.70775,-0.36751 -1.03605,-0.5977 z m -13.608,4.5825 c -3.8161,0 -6.9135,3.09745 -6.9135,6.9135 v 6.3955 h 1.1556 v -6.3955 c 0,-3.1926 2.56545,-5.778 5.758,-5.778 3.1932,0 5.778,2.5853 5.778,5.778 v 6.3955 h 1.1556 v -6.3955 c 0,-3.8161 -3.1169,-6.9135 -6.9335,-6.9135 z m 38.7915,0.0399 c -3.8163,0 -6.9135,3.1172 -6.9135,6.9335 0,3.8163 3.09725,6.9335 6.9135,6.9335 3.8163,0 6.9335,-3.1172 6.9335,-6.9335 0,-3.8163 -3.1172,-6.9335 -6.9335,-6.9335 z m -77.145,0.0199 c -3.816,0 -6.9335,3.0976 -6.9335,6.9135 0,3.816 3.1175,6.9135 6.9335,6.9135 3.816,0 6.9135,-3.0976 6.9135,-6.9135 0,-3.816 -3.0976,-6.9135 -6.9135,-6.9135 z m 10.3805,0.518 v 8.667 c 0,2.5617 2.0811,4.64225 4.64225,4.64225 1.7456,0 3.2858,-0.96515 4.0844,-2.39085 0.79285,1.4257 2.3192,2.39085 4.06445,2.39085 2.56165,0 4.66215,-2.08055 4.66215,-4.64225 v -8.667 h -1.1556 v 8.667 c 0,1.9382 -1.5683,3.48665 -3.5066,3.48665 -1.9383,0 -3.48665,-1.54845 -3.48665,-3.48665 v -8.667 h -1.1556 v 8.667 c 0,1.9383 -1.5676,3.48665 -3.5066,3.48665 -1.93765,0 -3.48665,-1.54845 -3.48665,-3.48665 v -8.667 h -1.1556 z m 76.725,0 v 6.3955 c 0,3.81555 3.0975,6.9135 6.9135,6.9135 3.8161,0 6.9335,-3.09795 6.9335,-6.9135 v -6.3955 h -1.1556 v 6.3955 c 0,3.19185 -2.58535,5.758 -5.778,5.758 -3.19255,0 -5.758,-2.5661 -5.758,-5.758 v -6.3955 h -1.1556 z m -9.962,0.61765 c 3.1928,0 5.778,2.5851 5.778,5.778 0,3.1928 -2.5851,5.778 -5.778,5.778 -3.1928,0 -5.758,-2.5851 -5.758,-5.778 0,-3.1928 2.5652,-5.778 5.758,-5.778 z m 33.9105,0 h 5.8375 c 0.005,0.76355 0.0364,6.023 0,8.0295 -0.0163,0.8929 -0.50605,1.7888 -1.21535,2.45065 -0.7093,0.6618 -1.6272,1.05595 -2.351,1.05595 h -2.2713 c -3.19255,0 -5.758,-2.5661 -5.758,-5.758 0,-3.1926 2.56545,-5.778 5.758,-5.778 z m -111.055,0.02 c 3.1925,0 5.758,2.5655 5.758,5.758 0,3.1925 -2.5655,5.758 -5.758,5.758 -3.1925,0 -5.778,-2.5655 -5.778,-5.758 0,-3.1925 2.5854,-5.758 5.778,-5.758 z"
   id="path3009"
   inkscape:connector-curvature="0" /><text
   xml:space="preserve"
   style="font-size:17.99998093px;font-style:normal;font-variant:normal;font-weight:300;font-stretch:normal;text-align:start;line-height:125%;letter-spacing:0px;word-spacing:0px;writing-mode:lr-tb;text-anchor:start;fill:#ffffff;fill-opacity:1;stroke:none;font-family:Lato;-inkscape-font-specification:Lato Light"
   x="13.653605"
   y="179.1096"
   id="text3597"
   sodipodi:linespacing="125%"><tspan
     sodipodi:role="line"
     id="tspan3599"
     x="13.653605"
     y="179.1096">héberge</tspan></text>
<path
   style="fill:#be0926;display:none"
   inkscape:connector-curvature="0"
   display="none"
   d="m -5.18083,436.3762 c 0.398,-0.977 -0.093,-1.907 -1.58,-2.764 -0.221,-0.126 -0.958,-0.506 -2.066,-0.698 -1.422,-0.245 -2.291,0.185 -2.283,0.177 -0.978,0.348 -1.835,1.328 -1.724,2.545 0.086,0.936 0.834,1.623 1.68,1.823 0.764,0.18 1.597,-0.294 3.182,-0.368 0.774,-0.036 0.982,0.015 1.58,-0.001 0.345,-0.011 0.591,-0.074 0.763,-0.18 0.198,-0.121 0.363,-0.325 0.448,-0.534 z"
   id="path3113" /><g
   id="g3000"
   transform="matrix(2,0,0,2,-187.46407,-269.13813)"><g
     inkscape:export-ydpi="128.60686"
     inkscape:export-xdpi="128.60686"
     inkscape:export-filename="/home/warbrain/mnt/Gnuside.Documents/Communication/Logo/2011-01-31 - Logo - CarteVisite - Final/Logo Only/Gnuside Beta/g4229.64.png"
     transform="translate(-579.04783,111.61288)"
     id="g4223"><path
       sodipodi:type="inkscape:offset"
       inkscape:radius="0"
       inkscape:original="M 725.40625 40.75 C 721.05225 40.681 719.53125 44.02375 719.53125 46.09375 C 719.53125 48.70475 721.4765 50.909 724.6875 51.25 C 724.7545 51.254 724.8695 51.25625 724.9375 51.28125 C 725.0085 51.30925 725.053 51.34825 725.125 51.40625 C 725.864 51.98925 726.828 53.4915 729.125 55.3125 C 730.482 56.3875 731.50375 56.96825 733.09375 57.53125 C 735.75975 58.47225 737.99775 58.095 738.59375 58 C 743.31475 57.257 746.687 53.5075 746.875 49.4375 C 747.099 44.5665 743.19575 41.925 740.34375 43 C 738.99975 43.493 738.375 44.75 738.375 44.75 C 738.375 44.75 739.217 43.92025 740.75 43.78125 C 743.158 43.78125 744.53125 45.8065 744.53125 47.5625 C 744.53125 50.2055 742.146 53.14875 738.625 52.84375 C 735.779 52.59875 733.557 50.46125 732.375 47.65625 C 731.449 45.45725 729.88325 41.171 725.40625 40.75 z "
       id="path3415"
       d="m 725.40625,40.75 c -4.354,-0.069 -5.875,3.27375 -5.875,5.34375 0,2.611 1.94525,4.81525 5.15625,5.15625 0.067,0.004 0.182,0.0063 0.25,0.03125 0.071,0.028 0.1155,0.067 0.1875,0.125 0.739,0.583 1.703,2.08525 4,3.90625 1.357,1.075 2.37875,1.65575 3.96875,2.21875 2.666,0.941 4.904,0.56375 5.5,0.46875 4.721,-0.743 8.09325,-4.4925 8.28125,-8.5625 0.224,-4.871 -3.67925,-7.5125 -6.53125,-6.4375 -1.344,0.493 -1.96875,1.75 -1.96875,1.75 0,0 0.842,-0.82975 2.375,-0.96875 2.408,0 3.78125,2.02525 3.78125,3.78125 0,2.643 -2.38525,5.58625 -5.90625,5.28125 -2.846,-0.245 -5.068,-2.3825 -6.25,-5.1875 -0.926,-2.199 -2.49175,-6.48525 -6.96875,-6.90625 z"
       style="fill:#ffffff;fill-opacity:1"
       transform="translate(2.8346457,0)" /><path
       style="fill:#ffffff;fill-opacity:1"
       id="path3325"
       d="m 735.80065,40.134 c 1.338,-1.172 1.297,-2.944 -0.295,-5.355 -0.236,-0.357 -1.063,-1.484 -2.59,-2.61 -1.957,-1.439 -3.586,-1.445 -3.568,-1.453 -1.736,-0.212 -3.768,0.619 -4.516,2.536 -0.576,1.473 -0.029,3.151 1.158,4.011 1.033,0.75 3.078,0.457 4.996,1.454 1.543,0.804 1.967,1.354 2.475,1.625 0.436,0.231 0.816,0.318 1.262,0.257 0.393,-0.051 0.797,-0.215 1.078,-0.465 z"
       inkscape:connector-curvature="0" /><path
       style="fill:#ffffff;fill-opacity:1"
       id="path3327"
       d="m 739.53565,35.057 c 1.5,-0.288 2.244,-1.625 2.107,-4.108 -0.023,-0.368 -0.146,-1.565 -0.791,-3.063 -0.828,-1.922 -2.039,-2.635 -2.023,-2.632 -1.199,-0.912 -3.066,-1.177 -4.457,-0.077 -1.068,0.845 -1.311,2.297 -0.881,3.485 0.383,1.07 1.617,1.704 2.965,3.572 0.66,0.912 0.762,1.205 1.254,1.916 0.287,0.413 0.559,0.66 0.822,0.787 0.308,0.144 0.683,0.183 1.004,0.12 z"
       inkscape:connector-curvature="0" /><path
       style="fill:#ffffff;fill-opacity:1"
       id="path3329"
       d="m 744.52365,33.124 c 1.201,0.491 2.346,-0.115 3.4,-1.943 0.154,-0.271 0.621,-1.178 0.859,-2.542 0.301,-1.75 -0.23,-2.816 -0.219,-2.806 -0.428,-1.204 -1.635,-2.258 -3.129,-2.122 -1.152,0.105 -1.998,1.025 -2.244,2.067 -0.219,0.94 0.363,1.962 0.453,3.912 0.045,0.954 -0.018,1.208 0.004,1.944 0.01,0.424 0.09,0.726 0.219,0.938 0.149,0.245 0.403,0.449 0.657,0.552 z"
       inkscape:connector-curvature="0" /></g><g
     transform="translate(-577.39751,111.61288)"
     inkscape:export-ydpi="128.60686"
     inkscape:export-xdpi="128.60686"
     id="g4229"><path
       id="path3382"
       style="font-size:9.99190044px;fill:#ffffff;fill-opacity:1;font-family:MyriadPro-Bold"
       d="m 717.46243,72.204757 0,-1.956422 -1.61003,0 0,-0.80989 2.5858,0 0,3.127348 c -0.38056,0.269964 -0.80014,0.474875 -1.25875,0.614736 -0.45861,0.136608 -0.94813,0.204912 -1.46853,0.204912 -1.13841,0 -2.02961,-0.331762 -2.67362,-0.995287 -0.64075,-0.666776 -0.96113,-1.593758 -0.96113,-2.780949 0,-1.190436 0.32038,-2.117418 0.96113,-2.780949 0.64401,-0.66677 1.53521,-1.000158 2.67362,-1.000166 0.47487,8e-6 0.92535,0.05855 1.35144,0.175639 0.42933,0.1171 0.82452,0.289486 1.18556,0.517159 l 0,1.048955 c -0.36429,-0.308989 -0.75135,-0.541547 -1.16116,-0.697677 -0.40983,-0.156117 -0.8408,-0.234179 -1.2929,-0.234185 -0.89121,6e-6 -1.56124,0.248828 -2.01009,0.746465 -0.44561,0.497649 -0.66841,1.239234 -0.6684,2.224759 -10e-6,0.982279 0.22279,1.722239 0.6684,2.21988 0.44885,0.497645 1.11888,0.746466 2.01009,0.746465 0.34802,10e-7 0.65864,-0.02927 0.93186,-0.08782 0.27321,-0.0618 0.51878,-0.156122 0.73671,-0.282974"
       inkscape:connector-curvature="0" /><path
       id="path3384"
       style="font-size:9.99190044px;fill:#ffffff;fill-opacity:1;font-family:MyriadPro-Bold"
       d="m 720.24338,65.959819 1.32704,0 3.22981,6.093694 0,-6.093694 0.95625,0 0,7.284135 -1.32704,0 -3.22981,-6.093693 0,6.093693 -0.95625,0 0,-7.284135"
       inkscape:connector-curvature="0" /><path
       id="path3386"
       style="font-size:9.99190044px;fill:#ffffff;fill-opacity:1;font-family:MyriadPro-Bold"
       d="m 727.60557,65.959819 0.99041,0 0,4.425124 c 0,0.78062 0.14149,1.343314 0.42446,1.688085 0.28297,0.341521 0.74158,0.512281 1.37584,0.51228 0.63099,10e-7 1.08798,-0.170759 1.37096,-0.51228 0.28297,-0.344771 0.42445,-0.907465 0.42446,-1.688085 l 0,-4.425124 0.99041,0 0,4.547096 c -10e-6,0.949753 -0.23582,1.666944 -0.70744,2.151576 -0.46837,0.484633 -1.16117,0.72695 -2.07839,0.72695 -0.92048,0 -1.61653,-0.242317 -2.08815,-0.72695 -0.46837,-0.484632 -0.70256,-1.201823 -0.70256,-2.151576 l 0,-4.547096"
       inkscape:connector-curvature="0" /><path
       id="path3388"
       style="font-size:9.99190044px;fill:#ffffff;fill-opacity:1;font-family:MyriadPro-Bold"
       d="m 739.40265,66.198884 0,0.961134 c -0.37405,-0.178885 -0.72696,-0.31224 -1.05871,-0.400066 -0.33177,-0.08781 -0.65215,-0.131722 -0.96114,-0.131729 -0.53668,7e-6 -0.95138,0.104089 -1.24411,0.312247 -0.28948,0.208171 -0.43422,0.504154 -0.43422,0.887952 0,0.32201 0.096,0.565952 0.28786,0.731829 0.19515,0.162633 0.56269,0.294362 1.10262,0.395187 l 0.59522,0.121972 c 0.73508,0.139864 1.27663,0.387059 1.62466,0.741586 0.35127,0.351281 0.52691,0.822903 0.52692,1.414869 -1e-5,0.705809 -0.23745,1.240857 -0.71232,1.605144 -0.47162,0.364288 -1.16442,0.546432 -2.07839,0.546432 -0.34478,0 -0.71232,-0.03903 -1.10262,-0.117093 -0.38706,-0.07806 -0.78875,-0.193528 -1.20508,-0.346399 l 0,-1.014802 c 0.40007,0.224429 0.792,0.393562 1.1758,0.507401 0.38381,0.113841 0.7611,0.170761 1.1319,0.17076 0.56269,10e-7 0.99691,-0.110586 1.30266,-0.331762 0.30573,-0.221174 0.4586,-0.536673 0.45861,-0.946499 -10e-6,-0.35778 -0.1106,-0.637501 -0.33177,-0.839163 -0.21792,-0.201657 -0.57733,-0.352901 -1.07822,-0.453734 l -0.6001,-0.117092 c -0.73509,-0.146363 -1.26688,-0.375669 -1.59539,-0.687919 -0.32851,-0.312243 -0.49276,-0.746461 -0.49276,-1.302655 0,-0.644003 0.22605,-1.151404 0.67816,-1.522204 0.45536,-0.370786 1.08148,-0.556182 1.87836,-0.55619 0.34151,8e-6 0.68954,0.03091 1.04407,0.0927 0.35453,0.06181 0.71719,0.154505 1.08799,0.278095"
       inkscape:connector-curvature="0" /><path
       id="path3390"
       style="font-size:9.99190044px;fill:#ffffff;fill-opacity:1;font-family:MyriadPro-Bold"
       d="m 741.37859,65.959819 0.98553,0 0,7.284135 -0.98553,0 0,-7.284135"
       inkscape:connector-curvature="0" /><path
       id="path3392"
       style="font-size:9.99190044px;fill:#ffffff;fill-opacity:1;font-family:MyriadPro-Bold"
       d="m 745.31095,66.76971 0,5.664354 1.19044,0 c 1.00504,0 1.74012,-0.227679 2.20524,-0.68304 0.46837,-0.455359 0.70255,-1.174176 0.70256,-2.156456 -10e-6,-0.975766 -0.23419,-1.689705 -0.70256,-2.141818 -0.46512,-0.455354 -1.2002,-0.683034 -2.20524,-0.68304 l -1.19044,0 m -0.98553,-0.809891 2.02472,0 c 1.41162,8e-6 2.44756,0.294365 3.10784,0.883074 0.66026,0.585468 0.9904,1.502693 0.9904,2.751675 0,1.255496 -0.33176,2.177599 -0.99528,2.766313 -0.66353,0.588716 -1.69785,0.883073 -3.10296,0.883073 l -2.02472,0 0,-7.284135"
       inkscape:connector-curvature="0" /><path
       id="path3394"
       style="font-size:9.99190044px;fill:#ffffff;fill-opacity:1;font-family:MyriadPro-Bold"
       d="m 752.0145,65.959819 4.60564,0 0,0.829406 -3.62012,0 0,2.156455 3.46887,0 0,0.829406 -3.46887,0 0,2.639462 3.70794,0 0,0.829406 -4.69346,0 0,-7.284135"
       inkscape:connector-curvature="0" /></g></g></svg>