<?xml version="1.0" encoding="UTF-8" standalone="no"?>
<svg
   xmlns:dc="http://purl.org/dc/elements/1.1/"
   xmlns:cc="http://creativecommons.org/ns#"
   xmlns:rdf="http://www.w3.org/1999/02/22-rdf-syntax-ns#"
   xmlns:svg="http://www.w3.org/2000/svg"
   xmlns="http://www.w3.org/2000/svg"
   xmlns:sodipodi="http://sodipodi.sourceforge.net/DTD/sodipodi-0.dtd"
   xmlns:inkscape="http://www.inkscape.org/namespaces/inkscape"
   xml:space="preserve"
   height="34"
   viewBox="0 0 320.00606 34"
   width="320"
   version="1.1"
   y="0px"
   x="0px"
   enable-background="new 0 0 595.275 311.111"
   id="svg2"
   inkscape:version="0.48.2 r9819"
   sodipodi:docname="logo-wide.svg"
   inkscape:export-filename="/Users/roland/dev/Gnuside/owncloud-core/core/img/logo-wide.png"
   inkscape:export-xdpi="90"
   inkscape:export-ydpi="90"><metadata
   id="metadata28"><rdf:RDF><cc:Work
       rdf:about=""><dc:format>image/svg+xml</dc:format><dc:type
         rdf:resource="http://purl.org/dc/dcmitype/StillImage" /><dc:title></dc:title></cc:Work></rdf:RDF></metadata><defs
   id="defs26">

	
	
	
	
<inkscape:perspective
   id="perspective3379"
   inkscape:persp3d-origin="392.35751 : 111.563 : 1"
   inkscape:vp_z="784.71503 : 167.3445 : 1"
   inkscape:vp_y="0 : 1000 : 0"
   inkscape:vp_x="0 : 167.3445 : 1"
   sodipodi:type="inkscape:persp3d" /></defs><sodipodi:namedview
   pagecolor="#ffffff"
   bordercolor="#666666"
   borderopacity="1"
   objecttolerance="10"
   gridtolerance="10"
   guidetolerance="10"
   inkscape:pageopacity="0"
   inkscape:pageshadow="2"
   inkscape:window-width="1237"
   inkscape:window-height="805"
   id="namedview24"
   showgrid="false"
   inkscape:zoom="2.3891943"
   inkscape:cx="161.00169"
   inkscape:cy="17.321826"
   inkscape:window-x="171"
   inkscape:window-y="30"
   inkscape:window-maximized="0"
   inkscape:current-layer="layer3" /><g
   inkscape:groupmode="layer"
   id="layer3"
   inkscape:label="logo"
   transform="translate(0,2.0000379)"><path
     style="fill:#be0926;display:none"
     inkscape:connector-curvature="0"
     display="none"
     d="m 59.583756,207.04094 c 0.398007,-0.97702 -0.093,-1.90704 -1.580028,-2.76405 -0.221004,-0.126 -0.958017,-0.50601 -2.066037,-0.69801 -1.422025,-0.24501 -2.291041,0.185 -2.283041,0.177 -0.978017,0.34801 -1.835032,1.32802 -1.72403,2.54504 0.086,0.93602 0.834014,1.62303 1.68003,1.82304 0.764013,0.18 1.597028,-0.29401 3.182056,-0.36801 0.774014,-0.036 0.982018,0.015 1.580028,-0.001 0.345006,-0.011 0.591011,-0.074 0.763014,-0.18 0.198003,-0.12101 0.363006,-0.32501 0.448008,-0.53401 z"
     id="path3113" /><g
     id="g4223"
     transform="matrix(0.93272847,0,0,0.93272847,-425.64228,-23.942234)"
     inkscape:export-filename="/home/warbrain/mnt/Gnuside.Documents/Communication/Logo/2011-01-31 - Logo - CarteVisite - Final/Logo Only/Gnuside Beta/g4229.64.png"
     inkscape:export-xdpi="128.60686"
     inkscape:export-ydpi="128.60686"><path
       transform="translate(2.8346457,0)"
       style="fill:#ffffff;fill-opacity:1"
       d="m 725.40625,40.75 c -4.354,-0.069 -5.875,3.27375 -5.875,5.34375 0,2.611 1.94525,4.81525 5.15625,5.15625 0.067,0.004 0.182,0.0063 0.25,0.03125 0.071,0.028 0.1155,0.067 0.1875,0.125 0.739,0.583 1.703,2.08525 4,3.90625 1.357,1.075 2.37875,1.65575 3.96875,2.21875 2.666,0.941 4.904,0.56375 5.5,0.46875 4.721,-0.743 8.09325,-4.4925 8.28125,-8.5625 0.224,-4.871 -3.67925,-7.5125 -6.53125,-6.4375 -1.344,0.493 -1.96875,1.75 -1.96875,1.75 0,0 0.842,-0.82975 2.375,-0.96875 2.408,0 3.78125,2.02525 3.78125,3.78125 0,2.643 -2.38525,5.58625 -5.90625,5.28125 -2.846,-0.245 -5.068,-2.3825 -6.25,-5.1875 -0.926,-2.199 -2.49175,-6.48525 -6.96875,-6.90625 z"
       id="path3415"
       inkscape:original="M 725.40625 40.75 C 721.05225 40.681 719.53125 44.02375 719.53125 46.09375 C 719.53125 48.70475 721.4765 50.909 724.6875 51.25 C 724.7545 51.254 724.8695 51.25625 724.9375 51.28125 C 725.0085 51.30925 725.053 51.34825 725.125 51.40625 C 725.864 51.98925 726.828 53.4915 729.125 55.3125 C 730.482 56.3875 731.50375 56.96825 733.09375 57.53125 C 735.75975 58.47225 737.99775 58.095 738.59375 58 C 743.31475 57.257 746.687 53.5075 746.875 49.4375 C 747.099 44.5665 743.19575 41.925 740.34375 43 C 738.99975 43.493 738.375 44.75 738.375 44.75 C 738.375 44.75 739.217 43.92025 740.75 43.78125 C 743.158 43.78125 744.53125 45.8065 744.53125 47.5625 C 744.53125 50.2055 742.146 53.14875 738.625 52.84375 C 735.779 52.59875 733.557 50.46125 732.375 47.65625 C 731.449 45.45725 729.88325 41.171 725.40625 40.75 z "
       inkscape:radius="0"
       sodipodi:type="inkscape:offset" /><path
       inkscape:connector-curvature="0"
       d="m 735.80065,40.134 c 1.338,-1.172 1.297,-2.944 -0.295,-5.355 -0.236,-0.357 -1.063,-1.484 -2.59,-2.61 -1.957,-1.439 -3.586,-1.445 -3.568,-1.453 -1.736,-0.212 -3.768,0.619 -4.516,2.536 -0.576,1.473 -0.029,3.151 1.158,4.011 1.033,0.75 3.078,0.457 4.996,1.454 1.543,0.804 1.967,1.354 2.475,1.625 0.436,0.231 0.816,0.318 1.262,0.257 0.393,-0.051 0.797,-0.215 1.078,-0.465 z"
       id="path3325"
       style="fill:#ffffff;fill-opacity:1" /><path
       inkscape:connector-curvature="0"
       d="m 739.53565,35.057 c 1.5,-0.288 2.244,-1.625 2.107,-4.108 -0.023,-0.368 -0.146,-1.565 -0.791,-3.063 -0.828,-1.922 -2.039,-2.635 -2.023,-2.632 -1.199,-0.912 -3.066,-1.177 -4.457,-0.077 -1.068,0.845 -1.311,2.297 -0.881,3.485 0.383,1.07 1.617,1.704 2.965,3.572 0.66,0.912 0.762,1.205 1.254,1.916 0.287,0.413 0.559,0.66 0.822,0.787 0.308,0.144 0.683,0.183 1.004,0.12 z"
       id="path3327"
       style="fill:#ffffff;fill-opacity:1" /><path
       inkscape:connector-curvature="0"
       d="m 744.52365,33.124 c 1.201,0.491 2.346,-0.115 3.4,-1.943 0.154,-0.271 0.621,-1.178 0.859,-2.542 0.301,-1.75 -0.23,-2.816 -0.219,-2.806 -0.428,-1.204 -1.635,-2.258 -3.129,-2.122 -1.152,0.105 -1.998,1.025 -2.244,2.067 -0.219,0.94 0.363,1.962 0.453,3.912 0.045,0.954 -0.018,1.208 0.004,1.944 0.01,0.424 0.09,0.726 0.219,0.938 0.149,0.245 0.403,0.449 0.657,0.552 z"
       id="path3329"
       style="fill:#ffffff;fill-opacity:1" /></g><path
     id="path3384"
     style="font-size:9.99190044px;fill:#ffffff;fill-opacity:1;font-family:MyriadPro-Bold"
     d="m 274.73688,22.874725 1.32706,0 3.22987,6.093799 0,-6.093799 0.95626,0 0,7.284261 -1.32706,0 -3.22987,-6.0938 0,6.0938 -0.95626,0 0,-7.284261"
     inkscape:connector-curvature="0" /><path
     id="path3386"
     style="font-size:9.99190044px;fill:#ffffff;fill-opacity:1;font-family:MyriadPro-Bold"
     d="m 282.0992,22.874725 0.99042,0 0,4.425199 c 0,0.780634 0.1415,1.343344 0.42447,1.68812 0.28298,0.341527 0.74159,0.512291 1.37587,0.512291 0.631,0 1.088,-0.170764 1.37098,-0.512291 0.28298,-0.344776 0.42446,-0.907486 0.42447,-1.68812 l 0,-4.425199 0.99043,0 0,4.547172 c -10e-6,0.949777 -0.23583,1.666979 -0.70746,2.151619 -0.46838,0.484639 -1.16119,0.726963 -2.07842,0.726963 -0.9205,0 -1.61656,-0.242324 -2.08819,-0.726963 -0.46838,-0.48464 -0.70257,-1.201842 -0.70257,-2.151619 l 0,-4.547172"
     inkscape:connector-curvature="0" /><path
     id="path3388"
     style="font-size:9.99190044px;fill:#ffffff;fill-opacity:1;font-family:MyriadPro-Bold"
     d="m 293.89649,23.113789 0,0.961157 c -0.37406,-0.178893 -0.72698,-0.312246 -1.05873,-0.400077 -0.33178,-0.0878 -0.65216,-0.131722 -0.96116,-0.131732 -0.53669,10e-6 -0.9514,0.104091 -1.24413,0.312255 -0.28949,0.208174 -0.43423,0.504159 -0.43423,0.887966 0,0.322016 0.096,0.56596 0.28787,0.731844 0.19515,0.162633 0.5627,0.294365 1.10264,0.395197 l 0.59523,0.121972 c 0.73509,0.139863 1.27665,0.387067 1.62469,0.741603 0.35127,0.351287 0.52691,0.822915 0.52692,1.414886 -1e-5,0.705822 -0.23745,1.240882 -0.71233,1.605179 -0.47163,0.364297 -1.16444,0.54644 -2.07843,0.54644 -0.34478,0 -0.71233,-0.039 -1.10263,-0.117092 -0.38707,-0.0781 -0.78877,-0.193534 -1.20511,-0.346406 l 0,-1.014819 c 0.40008,0.224424 0.79202,0.393567 1.17582,0.507409 0.38382,0.113842 0.76112,0.170764 1.13192,0.170764 0.5627,0 0.99693,-0.110593 1.30269,-0.331777 0.30573,-0.221174 0.45861,-0.53668 0.45862,-0.946507 -1e-5,-0.357787 -0.11061,-0.637521 -0.33178,-0.839185 -0.21792,-0.201654 -0.57734,-0.352906 -1.07824,-0.453738 l -0.60011,-0.117092 c -0.7351,-0.146373 -1.2669,-0.375677 -1.59542,-0.687932 -0.32851,-0.312246 -0.49277,-0.746475 -0.49277,-1.302685 0,-0.644011 0.22606,-1.15142 0.67818,-1.522227 0.45536,-0.370796 1.08149,-0.55619 1.87839,-0.5562 0.34151,10e-6 0.68955,0.0309 1.04409,0.0927 0.35453,0.0618 0.7172,0.154503 1.08801,0.278095"
     inkscape:connector-curvature="0" /><path
     id="path3390"
     style="font-size:9.99190044px;fill:#ffffff;fill-opacity:1;font-family:MyriadPro-Bold"
     d="m 295.87246,22.874725 0.98555,0 0,7.284261 -0.98555,0 0,-7.284261"
     inkscape:connector-curvature="0" /><path
     id="path3392"
     style="font-size:9.99190044px;fill:#ffffff;fill-opacity:1;font-family:MyriadPro-Bold"
     d="m 299.80489,23.684629 0,5.664452 1.19046,0 c 1.00506,0 1.74015,-0.227684 2.20528,-0.683052 0.46838,-0.455368 0.70256,-1.174191 0.70257,-2.156489 -1e-5,-0.975787 -0.23419,-1.689741 -0.70257,-2.141859 -0.46513,-0.455368 -1.20022,-0.683052 -2.20528,-0.683052 l -1.19046,0 m -0.98555,-0.809904 2.02476,0 c 1.41165,10e-6 2.4476,0.294365 3.1079,0.883085 0.66027,0.585481 0.99041,1.502717 0.99041,2.75173 0,1.255513 -0.33176,2.177639 -0.99529,2.76636 -0.66355,0.588731 -1.69788,0.883086 -3.10302,0.883086 l -2.02476,0 0,-7.284261"
     inkscape:connector-curvature="0" /><path
     id="path3394"
     style="font-size:9.99190044px;fill:#ffffff;fill-opacity:1;font-family:MyriadPro-Bold"
     d="m 306.50856,22.874725 4.60572,0 0,0.829414 -3.62018,0 0,2.1565 3.46893,0 0,0.829415 -3.46893,0 0,2.639517 3.708,0 0,0.829415 -4.69354,0 0,-7.284261"
     inkscape:connector-curvature="0" /></g><g
   id="g3615"
   transform="translate(0,0.39288411)"><path
     inkscape:connector-curvature="0"
     id="path3162"
     d="m 104,12.907243 v 15.344 c 0,2.008 1.71,3.656 3.72,3.656 v -1 c -1.52,0 -2.72,-1.137 -2.72,-2.656 v -15.344 h -1 z m 42,0 v 8 h -4.53 c -2.99,0 -5.47,2.571 -5.47,5.562 0,2.991 2.48,5.466 5.47,5.438 h 1.78 c 0.88,0 1.74,-0.442 2.44,-1.094 0.7,-0.651 1.29,-1.555 1.31,-2.562 v -15.344 h -1 z m -44.5,2 c -4.635003,0 -8.500003,3.865 -8.500003,8.5 0,4.635 3.865,8.5 8.500003,8.5 v -1 c -4.146003,0 -7.500003,-3.353 -7.500003,-7.5 0,-4.147 3.354,-7.5 7.500003,-7.5 v -1 z m -46.000003,6 c -0.606,0 -1.201,0.092 -1.75,0.281 0.071,0.325 0.15,0.664 0.188,1 0.489,-0.18 1.007,-0.281 1.562,-0.281 2.503,0 4.5,1.997 4.5,4.5 0,2.503 -1.997,4.5 -4.5,4.5 -1.444,0 -2.71,-0.676 -3.531,-1.719 -0.198,0.255 -0.434,0.485 -0.657,0.719 1.017,1.208 2.521,2 4.188,2 2.991,0 5.5,-2.509 5.5,-5.5 0,-2.991 -2.509,-5.5 -5.5,-5.5 z m 7.5,0 v 7.344 c 0,2.008 1.992,3.656 4,3.656 1.368,0 2.905,-0.695 3.531,-1.812 0.622,1.117 2.101,1.812 3.469,1.812 2.008,0 4,-1.648 4,-3.656 v -7.344 h -1 v 7.344 c 0,1.519 -1.481,2.656 -3,2.656 -1.519,0 -3,-1.002 -3,-2.656 v -7.344 h -1 v 7.344 c 0,1.519 -1.48,2.656 -3,2.656 -1.519,0 -3,-1.137 -3,-2.656 v -7.344 h -1 z m 22.531,0 c -2.991,0 -5.531,2.54 -5.531,5.531 v 5.469 h 1 v -5.469 c 0,-2.502 2.029,-4.531 4.531,-4.531 2.503,0 4.469,2.029 4.469,4.531 v 5.469 h 1 v -5.469 c 0,-2.991 -2.477,-5.531 -5.469,-5.531 z m 29.969003,0 c -2.99,0 -5.5,2.509 -5.5,5.5 0,2.991 2.51,5.5 5.5,5.5 2.99,0 5.5,-2.509 5.5,-5.5 0,-2.991 -2.51,-5.5 -5.5,-5.5 z m 7.5,0 v 5.562 c 0,2.991 2.48,5.438 5.47,5.438 2.99,0 5.53,-2.447 5.53,-5.438 v -5.562 h -1 v 5.562 c 0,2.502 -2.03,4.438 -4.53,4.438 -2.5,0 -4.47,-1.936 -4.47,-4.438 v -5.562 h -1 z m -7.5,1 c 2.5,0 4.5,1.997 4.5,4.5 0,2.503 -2,4.5 -4.5,4.5 -2.5,0 -4.5,-1.997 -4.5,-4.5 0,-2.503 2,-4.5 4.5,-4.5 z m 25.97,0 H 146 v 6.344 c -0.01,0.7 -0.35,1.387 -0.91,1.906 -0.55,0.519 -1.27,0.75 -1.84,0.75 h -1.78 c -2.5,0 -4.47,-1.936 -4.47,-4.438 0,-2.502 1.97,-4.562 4.47,-4.562 z"
     style="text-indent:0;text-transform:none;block-progression:tb;color:#000000;fill:#ffffff;enable-background:accumulate" /><path
     style="fill:#ffffff"
     inkscape:connector-curvature="0"
     id="path3164"
     d="m 16.398,3.5929426 c -2.2943,0 -4.1386,1.8599 -4.1386,4.1542 0,0.7428301 0.19165,1.4447001 0.53099,2.0459001 1.3845,-0.781 2.9851,-1.2338 4.6852,-1.2338 0.16408,0 0.32211,0.0067 0.48414,0.01562 -0.01834,-0.23258 -0.03123,-0.4655401 -0.03123,-0.7027801 0,-1.2779 0.27755,-2.4937 0.76525,-3.592 -0.657,-0.4403 -1.443,-0.6871 -2.296,-0.6871 z" /><path
     style="fill:#ffffff"
     inkscape:connector-curvature="0"
     id="path3166"
     d="m 7.9804995,15.759243 c -4.4057,0 -7.98049906045454,3.5435 -7.98049906045454,7.9492 0,4.4057 3.57479906045454,7.9805 7.98049906045454,7.9805 1.6769006,0 3.2302005,-0.52246 4.5134005,-1.4056 -0.53024,-0.82393 -0.84334,-1.809 -0.84334,-2.858 0,-0.54446 0.08034,-1.0675 0.23426,-1.5617 -2.4022999,-1.7361 -3.9668005,-4.5612 -3.9668005,-7.7462 0,-0.80924 0.10664,-1.5917 0.29673,-2.3426 -0.0789,-0.0023 -0.15479,-0.01562 -0.23426,-0.01562 z" /><path
     style="fill:#ffffff"
     inkscape:connector-curvature="0"
     id="path3168"
     d="m 17.476,9.4650427 c -4.7826,0 -8.6519999,3.8694003 -8.6519999,8.6520003 0,2.8154 1.3413999,5.3078 3.4201999,6.8873 0.87636,-1.6903 2.6365,-2.8424 4.6696,-2.8424 0.24572,0 0.48158,0.02978 0.7184,0.06247 -0.07434,-0.54088 -0.10932,-1.0943 -0.10932,-1.6554 0,-2.6831 0.87339,-5.1644 2.3582,-7.1684 -0.889,-1.112 -1.525,-2.448 -1.796,-3.9039003 -0.201,-0.014 -0.405,-0.0313 -0.609,-0.0313 z" /><path
     style="fill:#ffffff"
     inkscape:connector-curvature="0"
     id="path3170"
     d="m 36.045,6.4509426 c -0.1695,0 -0.33288,0.02081 -0.49976,0.03124 0.07218,0.45513 0.12494,0.9147 0.12494,1.3899 0,0.7396001 -0.09406,1.4533001 -0.2655,2.1396004 2.01,1.1123 3.6791,2.7767 4.7789,4.7945 1.1407,-0.59386 2.4132,-0.97147 3.7638,-1.062 -0.34807,-4.0820003 -3.7298,-7.2933004 -7.9024,-7.2933004 z" /><path
     style="fill:#ffffff"
     inkscape:connector-curvature="0"
     id="path3172"
     d="m 26.799,-0.09275632 c -4.4056,0 -7.9649,3.55929992 -7.9649,7.96489992 0,1.8160001 0.60469,3.4874004 1.6242,4.8258004 2.2117,-2.5599 5.4759,-4.1855003 9.1205,-4.1855003 1.7831,0 3.474,0.39707 4.9976,1.0932 0.124,-0.5582 0.188,-1.138401 0.188,-1.7338011 0,-4.405599 -3.559,-7.96489892 -7.965,-7.96489892 z" /><path
     style="fill:#ffffff"
     inkscape:connector-curvature="0"
     id="path3174"
     d="m 44.588,14.619243 c -1.4522,0 -2.8126,0.37076 -4.0137,0.99951 0.682,1.5107 1.062,3.1868 1.062,4.9507 0,3.3027 -1.3279,6.3016 -3.4827,8.4802 1.583,1.7575 3.8797,2.858 6.4344,2.858 4.7826,0 8.652,-3.8694 8.652,-8.652 0,-4.7827 -3.8694,-8.6364 -8.652,-8.6364 z" /><path
     style="fill:#ffffff"
     inkscape:connector-curvature="0"
     id="path3176"
     d="m 16.914,23.068243 c -2.415,0 -4.3572,1.9422 -4.3572,4.3572 0,2.415 1.9422,4.3729 4.3572,4.3729 1.8512,0 3.4224,-1.1551 4.0605,-2.7799 -1.557,-1.5857 -2.6759,-3.6087 -3.1703,-5.8565 -0.28932,-0.05983 -0.58298,-0.09371 -0.89019,-0.09371 z" /><path
     style="fill:#ffffff"
     inkscape:connector-curvature="0"
     id="path3178"
     d="m 29.579,9.4182427 c -6.1647,0 -11.151,4.9857003 -11.151,11.1510003 0,6.1645 4.9858,11.151 11.151,11.151 6.165,0 11.151,-4.9864 11.151,-11.151 0,-6.1651 -4.9861,-11.1510003 -11.151,-11.1510003 z" /></g><text
   xml:space="preserve"
   style="font-size:18.00032043px;font-style:normal;font-variant:normal;font-weight:300;font-stretch:normal;text-align:start;line-height:125%;letter-spacing:0px;word-spacing:0px;writing-mode:lr-tb;text-anchor:start;fill:#ffffff;fill-opacity:1;stroke:none;font-family:Lato;-inkscape-font-specification:Lato Light"
   x="160.49347"
   y="32.255291"
   id="text3597"
   sodipodi:linespacing="125%"><tspan
     sodipodi:role="line"
     id="tspan3599"
     x="160.49347"
     y="32.255291">hosted by</tspan></text>

</svg>